<mxfile host="Electron" modified="2023-04-17T20:49:48.583Z" agent="Mozilla/5.0 (Windows NT 10.0; Win64; x64) AppleWebKit/537.36 (KHTML, like Gecko) draw.io/21.1.2 Chrome/106.0.5249.199 Electron/21.4.3 Safari/537.36" etag="ntU7RbKCrPgG8JkByJ8o" version="21.1.2" type="device">
  <diagram name="Page-1" id="P8YhvIADPvV29swbN4xH">
    <mxGraphModel dx="3195" dy="1183" grid="1" gridSize="10" guides="1" tooltips="1" connect="1" arrows="1" fold="1" page="1" pageScale="1" pageWidth="1169" pageHeight="827" math="0" shadow="0">
      <root>
        <mxCell id="0" />
        <mxCell id="1" parent="0" />
        <mxCell id="Wqb625Jt-_VROzE7ZddV-39" value="&lt;font style=&quot;font-size: 24px;&quot;&gt;Oracle&lt;br&gt;&lt;/font&gt;" style="text;html=1;align=center;verticalAlign=middle;resizable=0;points=[];autosize=1;strokeColor=none;fillColor=none;container=0;" parent="1" vertex="1">
          <mxGeometry x="50" y="540" width="90" height="40" as="geometry" />
        </mxCell>
        <mxCell id="M3bBHqCon_yVhuw_0qJf-1" value="&lt;font style=&quot;font-size: 24px;&quot;&gt;Spatial&lt;br&gt;&lt;/font&gt;" style="text;html=1;align=center;verticalAlign=middle;resizable=0;points=[];autosize=1;strokeColor=none;fillColor=none;container=0;" parent="1" vertex="1">
          <mxGeometry x="398.5" y="540" width="100" height="40" as="geometry" />
        </mxCell>
        <mxCell id="M3bBHqCon_yVhuw_0qJf-2" value="&lt;font style=&quot;font-size: 24px;&quot;&gt;Channel&lt;/font&gt;" style="text;html=1;align=center;verticalAlign=middle;resizable=0;points=[];autosize=1;strokeColor=none;fillColor=none;container=0;" parent="1" vertex="1">
          <mxGeometry x="747" y="540" width="110" height="40" as="geometry" />
        </mxCell>
        <mxCell id="M3bBHqCon_yVhuw_0qJf-4" value="&lt;font style=&quot;font-size: 24px;&quot;&gt;Temporal&lt;br&gt;&lt;/font&gt;" style="text;html=1;align=center;verticalAlign=middle;resizable=0;points=[];autosize=1;strokeColor=none;fillColor=none;container=0;" parent="1" vertex="1">
          <mxGeometry x="1095" y="540" width="120" height="40" as="geometry" />
        </mxCell>
        <mxCell id="9o1UVwG_tcbghBWCXwlk-40" value="" style="group" vertex="1" connectable="0" parent="1">
          <mxGeometry x="-60" y="220" width="310" height="309" as="geometry" />
        </mxCell>
        <mxCell id="Wqb625Jt-_VROzE7ZddV-18" value="" style="shape=cube;whiteSpace=wrap;html=1;boundedLbl=1;backgroundOutline=1;darkOpacity=0.05;darkOpacity2=0.1;size=10;container=0;" parent="9o1UVwG_tcbghBWCXwlk-40" vertex="1">
          <mxGeometry width="170" height="170" as="geometry" />
        </mxCell>
        <mxCell id="Wqb625Jt-_VROzE7ZddV-19" value="" style="shape=cube;whiteSpace=wrap;html=1;boundedLbl=1;backgroundOutline=1;darkOpacity=0.05;darkOpacity2=0.1;size=10;container=0;" parent="9o1UVwG_tcbghBWCXwlk-40" vertex="1">
          <mxGeometry x="20" y="20" width="170" height="170" as="geometry" />
        </mxCell>
        <mxCell id="Wqb625Jt-_VROzE7ZddV-22" value="" style="shape=cube;whiteSpace=wrap;html=1;boundedLbl=1;backgroundOutline=1;darkOpacity=0.05;darkOpacity2=0.1;size=10;container=0;" parent="9o1UVwG_tcbghBWCXwlk-40" vertex="1">
          <mxGeometry x="40" y="40" width="170" height="170" as="geometry" />
        </mxCell>
        <mxCell id="Wqb625Jt-_VROzE7ZddV-23" value="" style="shape=cube;whiteSpace=wrap;html=1;boundedLbl=1;backgroundOutline=1;darkOpacity=0.05;darkOpacity2=0.1;size=10;container=0;" parent="9o1UVwG_tcbghBWCXwlk-40" vertex="1">
          <mxGeometry x="60" y="60" width="170" height="170" as="geometry" />
        </mxCell>
        <mxCell id="Wqb625Jt-_VROzE7ZddV-25" value="" style="shape=cube;whiteSpace=wrap;html=1;boundedLbl=1;backgroundOutline=1;darkOpacity=0.05;darkOpacity2=0.1;size=10;container=0;" parent="9o1UVwG_tcbghBWCXwlk-40" vertex="1">
          <mxGeometry x="80" y="80" width="170" height="170" as="geometry" />
        </mxCell>
        <mxCell id="Wqb625Jt-_VROzE7ZddV-26" value="" style="shape=cube;whiteSpace=wrap;html=1;boundedLbl=1;backgroundOutline=1;darkOpacity=0.05;darkOpacity2=0.1;size=10;container=0;" parent="9o1UVwG_tcbghBWCXwlk-40" vertex="1">
          <mxGeometry x="100" y="100" width="170" height="170" as="geometry" />
        </mxCell>
        <mxCell id="Wqb625Jt-_VROzE7ZddV-29" value="" style="shape=cube;whiteSpace=wrap;html=1;boundedLbl=1;backgroundOutline=1;darkOpacity=0.05;darkOpacity2=0.1;size=10;container=0;" parent="9o1UVwG_tcbghBWCXwlk-40" vertex="1">
          <mxGeometry x="120" y="119" width="170" height="170" as="geometry" />
        </mxCell>
        <mxCell id="Wqb625Jt-_VROzE7ZddV-30" value="" style="shape=cube;whiteSpace=wrap;html=1;boundedLbl=1;backgroundOutline=1;darkOpacity=0.05;darkOpacity2=0.1;size=10;container=0;" parent="9o1UVwG_tcbghBWCXwlk-40" vertex="1">
          <mxGeometry x="140" y="139" width="170" height="170" as="geometry" />
        </mxCell>
        <mxCell id="9o1UVwG_tcbghBWCXwlk-41" value="" style="group" vertex="1" connectable="0" parent="1">
          <mxGeometry x="336" y="262.5" width="225" height="224" as="geometry" />
        </mxCell>
        <mxCell id="9o1UVwG_tcbghBWCXwlk-29" value="" style="shape=cube;whiteSpace=wrap;html=1;boundedLbl=1;backgroundOutline=1;darkOpacity=0.05;darkOpacity2=0.1;size=10;container=0;" vertex="1" parent="9o1UVwG_tcbghBWCXwlk-41">
          <mxGeometry width="85" height="85" as="geometry" />
        </mxCell>
        <mxCell id="9o1UVwG_tcbghBWCXwlk-31" value="" style="shape=cube;whiteSpace=wrap;html=1;boundedLbl=1;backgroundOutline=1;darkOpacity=0.05;darkOpacity2=0.1;size=10;container=0;" vertex="1" parent="9o1UVwG_tcbghBWCXwlk-41">
          <mxGeometry x="20" y="20" width="85" height="85" as="geometry" />
        </mxCell>
        <mxCell id="9o1UVwG_tcbghBWCXwlk-32" value="" style="shape=cube;whiteSpace=wrap;html=1;boundedLbl=1;backgroundOutline=1;darkOpacity=0.05;darkOpacity2=0.1;size=10;container=0;" vertex="1" parent="9o1UVwG_tcbghBWCXwlk-41">
          <mxGeometry x="40" y="40" width="85" height="85" as="geometry" />
        </mxCell>
        <mxCell id="9o1UVwG_tcbghBWCXwlk-34" value="" style="shape=cube;whiteSpace=wrap;html=1;boundedLbl=1;backgroundOutline=1;darkOpacity=0.05;darkOpacity2=0.1;size=10;container=0;" vertex="1" parent="9o1UVwG_tcbghBWCXwlk-41">
          <mxGeometry x="60" y="60" width="85" height="85" as="geometry" />
        </mxCell>
        <mxCell id="9o1UVwG_tcbghBWCXwlk-35" value="" style="shape=cube;whiteSpace=wrap;html=1;boundedLbl=1;backgroundOutline=1;darkOpacity=0.05;darkOpacity2=0.1;size=10;container=0;" vertex="1" parent="9o1UVwG_tcbghBWCXwlk-41">
          <mxGeometry x="80" y="80" width="85" height="85" as="geometry" />
        </mxCell>
        <mxCell id="9o1UVwG_tcbghBWCXwlk-37" value="" style="shape=cube;whiteSpace=wrap;html=1;boundedLbl=1;backgroundOutline=1;darkOpacity=0.05;darkOpacity2=0.1;size=10;container=0;" vertex="1" parent="9o1UVwG_tcbghBWCXwlk-41">
          <mxGeometry x="100" y="100" width="85" height="85" as="geometry" />
        </mxCell>
        <mxCell id="9o1UVwG_tcbghBWCXwlk-38" value="" style="shape=cube;whiteSpace=wrap;html=1;boundedLbl=1;backgroundOutline=1;darkOpacity=0.05;darkOpacity2=0.1;size=10;container=0;" vertex="1" parent="9o1UVwG_tcbghBWCXwlk-41">
          <mxGeometry x="120" y="119" width="85" height="85" as="geometry" />
        </mxCell>
        <mxCell id="9o1UVwG_tcbghBWCXwlk-39" value="" style="shape=cube;whiteSpace=wrap;html=1;boundedLbl=1;backgroundOutline=1;darkOpacity=0.05;darkOpacity2=0.1;size=10;container=0;" vertex="1" parent="9o1UVwG_tcbghBWCXwlk-41">
          <mxGeometry x="140" y="139" width="85" height="85" as="geometry" />
        </mxCell>
        <mxCell id="9o1UVwG_tcbghBWCXwlk-42" value="" style="group" vertex="1" connectable="0" parent="1">
          <mxGeometry x="647" y="220" width="310" height="309" as="geometry" />
        </mxCell>
        <mxCell id="9o1UVwG_tcbghBWCXwlk-51" value="" style="group" vertex="1" connectable="0" parent="9o1UVwG_tcbghBWCXwlk-42">
          <mxGeometry width="300" height="299" as="geometry" />
        </mxCell>
        <mxCell id="9o1UVwG_tcbghBWCXwlk-43" value="" style="shape=cube;whiteSpace=wrap;html=1;boundedLbl=1;backgroundOutline=1;darkOpacity=0.05;darkOpacity2=0.1;size=0;container=0;" vertex="1" parent="9o1UVwG_tcbghBWCXwlk-51">
          <mxGeometry width="160" height="160" as="geometry" />
        </mxCell>
        <mxCell id="9o1UVwG_tcbghBWCXwlk-44" value="" style="shape=cube;whiteSpace=wrap;html=1;boundedLbl=1;backgroundOutline=1;darkOpacity=0.05;darkOpacity2=0.1;size=0;container=0;" vertex="1" parent="9o1UVwG_tcbghBWCXwlk-51">
          <mxGeometry x="20" y="20" width="160" height="160" as="geometry" />
        </mxCell>
        <mxCell id="9o1UVwG_tcbghBWCXwlk-45" value="" style="shape=cube;whiteSpace=wrap;html=1;boundedLbl=1;backgroundOutline=1;darkOpacity=0.05;darkOpacity2=0.1;size=0;container=0;" vertex="1" parent="9o1UVwG_tcbghBWCXwlk-51">
          <mxGeometry x="40" y="40" width="160" height="160" as="geometry" />
        </mxCell>
        <mxCell id="9o1UVwG_tcbghBWCXwlk-46" value="" style="shape=cube;whiteSpace=wrap;html=1;boundedLbl=1;backgroundOutline=1;darkOpacity=0.05;darkOpacity2=0.1;size=0;container=0;" vertex="1" parent="9o1UVwG_tcbghBWCXwlk-51">
          <mxGeometry x="60" y="60" width="160" height="160" as="geometry" />
        </mxCell>
        <mxCell id="9o1UVwG_tcbghBWCXwlk-47" value="" style="shape=cube;whiteSpace=wrap;html=1;boundedLbl=1;backgroundOutline=1;darkOpacity=0.05;darkOpacity2=0.1;size=0;container=0;" vertex="1" parent="9o1UVwG_tcbghBWCXwlk-51">
          <mxGeometry x="80" y="80" width="160" height="160" as="geometry" />
        </mxCell>
        <mxCell id="9o1UVwG_tcbghBWCXwlk-48" value="" style="shape=cube;whiteSpace=wrap;html=1;boundedLbl=1;backgroundOutline=1;darkOpacity=0.05;darkOpacity2=0.1;size=0;container=0;" vertex="1" parent="9o1UVwG_tcbghBWCXwlk-51">
          <mxGeometry x="100" y="100" width="160" height="160" as="geometry" />
        </mxCell>
        <mxCell id="9o1UVwG_tcbghBWCXwlk-49" value="" style="shape=cube;whiteSpace=wrap;html=1;boundedLbl=1;backgroundOutline=1;darkOpacity=0.05;darkOpacity2=0.1;size=0;container=0;" vertex="1" parent="9o1UVwG_tcbghBWCXwlk-51">
          <mxGeometry x="120" y="119" width="160" height="160" as="geometry" />
        </mxCell>
        <mxCell id="9o1UVwG_tcbghBWCXwlk-50" value="" style="shape=cube;whiteSpace=wrap;html=1;boundedLbl=1;backgroundOutline=1;darkOpacity=0.05;darkOpacity2=0.1;size=0;container=0;" vertex="1" parent="9o1UVwG_tcbghBWCXwlk-51">
          <mxGeometry x="140" y="139" width="160" height="160" as="geometry" />
        </mxCell>
        <mxCell id="9o1UVwG_tcbghBWCXwlk-61" value="" style="group" vertex="1" connectable="0" parent="1">
          <mxGeometry x="1010" y="230" width="290" height="289" as="geometry" />
        </mxCell>
        <mxCell id="9o1UVwG_tcbghBWCXwlk-54" value="" style="shape=cube;whiteSpace=wrap;html=1;boundedLbl=1;backgroundOutline=1;darkOpacity=0.05;darkOpacity2=0.1;size=10;container=0;" vertex="1" parent="9o1UVwG_tcbghBWCXwlk-61">
          <mxGeometry width="170" height="170" as="geometry" />
        </mxCell>
        <mxCell id="9o1UVwG_tcbghBWCXwlk-56" value="" style="shape=cube;whiteSpace=wrap;html=1;boundedLbl=1;backgroundOutline=1;darkOpacity=0.05;darkOpacity2=0.1;size=10;container=0;" vertex="1" parent="9o1UVwG_tcbghBWCXwlk-61">
          <mxGeometry x="40" y="40" width="170" height="170" as="geometry" />
        </mxCell>
        <mxCell id="9o1UVwG_tcbghBWCXwlk-58" value="" style="shape=cube;whiteSpace=wrap;html=1;boundedLbl=1;backgroundOutline=1;darkOpacity=0.05;darkOpacity2=0.1;size=10;container=0;" vertex="1" parent="9o1UVwG_tcbghBWCXwlk-61">
          <mxGeometry x="80" y="80" width="170" height="170" as="geometry" />
        </mxCell>
        <mxCell id="9o1UVwG_tcbghBWCXwlk-60" value="" style="shape=cube;whiteSpace=wrap;html=1;boundedLbl=1;backgroundOutline=1;darkOpacity=0.05;darkOpacity2=0.1;size=10;container=0;" vertex="1" parent="9o1UVwG_tcbghBWCXwlk-61">
          <mxGeometry x="120" y="119" width="170" height="170" as="geometry" />
        </mxCell>
      </root>
    </mxGraphModel>
  </diagram>
</mxfile>
